<svg width="32" height="32" fill="none" xmlns="http://www.w3.org/2000/svg"><rect width="32" height="32" rx="16" fill="#F1F1F1"/><path fill-rule="evenodd" clip-rule="evenodd" d="M23 11.85a2.858 2.858 0 1 1-5.716 0 2.858 2.858 0 0 1 5.716 0Z" fill="#0C0C0C" stroke="#0C0C0C" stroke-linecap="round" stroke-linejoin="round"/><path clip-rule="evenodd" d="M14.714 11.85a2.857 2.857 0 1 1-5.715 0 2.857 2.857 0 0 1 5.715 0ZM23 20.085a2.857 2.857 0 1 1-5.714 0 2.857 2.857 0 0 1 5.714 0ZM14.714 20.085a2.857 2.857 0 1 1-5.713 0 2.857 2.857 0 0 1 5.713 0Z" stroke="#0C0C0C" stroke-linecap="round" stroke-linejoin="round"/></svg>