<svg width="24" height="24" fill="none" xmlns="http://www.w3.org/2000/svg"><mask id="a" style="mask-type:alpha" maskUnits="userSpaceOnUse" x="0" y="0" width="24" height="24"><path fill="#D9D9D9" d="M0 0h24v24H0z"/></mask><g mask="url(#a)"><path d="m12.7 14.05 5.65-5.65-1.4-1.45-4.25 4.25-2.15-2.1-1.4 1.4 3.55 3.55ZM8 18c-.55 0-1.02-.196-1.412-.587A1.927 1.927 0 0 1 6 16V4c0-.55.196-1.021.588-1.413A1.925 1.925 0 0 1 8 2h12c.55 0 1.021.196 1.413.587.391.392.587.863.587 1.413v12c0 .55-.196 1.021-.587 1.413A1.928 1.928 0 0 1 20 18H8Zm0-2h12V4H8v12Zm-4 6c-.55 0-1.02-.196-1.412-.587A1.927 1.927 0 0 1 2 20V6h2v14h14v2H4Z" fill="#0E40CF"/></g></svg>