<svg width="70" height="26" fill="none" xmlns="http://www.w3.org/2000/svg"><g opacity=".3"><g clip-path="url(#a)"><path d="M3.479.031h8.947L20 7.695v14.899c0 1.864-1.557 3.374-3.479 3.374H3.48C1.557 25.968 0 24.458 0 22.594V3.405C0 1.542 1.557.031 3.479.031Z" fill="#0263D1"/><path fill-rule="evenodd" clip-rule="evenodd" d="M12.415.031v7.602H20L12.415.03Z" fill="#fff" fill-opacity=".302"/><path d="M3.23 18.538v-4.293h1.568c.314 0 .606.045.876.129.27.087.516.213.736.381.22.168.392.392.519.671.126.28.19.602.19.966 0 .363-.064.685-.19.965-.127.28-.3.503-.52.67-.22.169-.465.294-.735.382a2.94 2.94 0 0 1-.876.13H3.23Zm1.107-.933h.328c.176 0 .342-.021.49-.06.151-.042.288-.108.418-.196a.855.855 0 0 0 .303-.377c.076-.161.112-.357.112-.58 0-.224-.036-.42-.112-.584a.864.864 0 0 0-.303-.375 1.34 1.34 0 0 0-.418-.195 1.96 1.96 0 0 0-.49-.06h-.328v2.427Zm5.468.982c-.667 0-1.218-.21-1.654-.626-.437-.416-.653-.94-.653-1.57 0-.629.216-1.153.653-1.57.436-.415.987-.625 1.654-.625.656 0 1.2.21 1.637.626.432.416.649.94.649 1.57 0 .629-.216 1.153-.65 1.57-.435.416-.98.625-1.636.625Zm-.85-1.29c.22.238.5.357.843.357.343 0 .62-.12.84-.357.22-.241.328-.542.328-.905 0-.364-.108-.665-.328-.906a1.09 1.09 0 0 0-.84-.357c-.342 0-.624.12-.843.357-.22.241-.332.542-.332.905 0 .364.112.665.332.906Zm5.767 1.29c-.645 0-1.182-.196-1.607-.58-.43-.388-.642-.927-.642-1.616 0-.685.216-1.223.649-1.611.436-.388.966-.584 1.6-.584.574 0 1.042.136 1.414.412.367.273.58.637.634 1.091l-1.117.22a.964.964 0 0 0-.332-.573.922.922 0 0 0-.606-.217c-.317 0-.58.109-.793.329-.213.224-.32.531-.32.934 0 .402.107.71.316.93.213.223.476.332.797.332.23 0 .43-.063.591-.19a.824.824 0 0 0 .307-.503l1.143.252c-.105.434-.336.77-.696 1.01-.357.242-.804.364-1.338.364Z" fill="#fff"/></g><g clip-path="url(#b)" fill-rule="evenodd" clip-rule="evenodd"><path d="M28.481.033h8.943L45 7.698V22.59c0 1.864-1.56 3.377-3.482 3.377H28.48C26.56 25.967 25 24.454 25 22.59V3.41c0-1.864 1.56-3.377 3.482-3.377Z" fill="#00733B"/><path d="M37.412.033v7.6h7.586l-7.586-7.6Z" fill="#fff" fill-opacity=".302"/><path d="M30.89 19.058h3.55v1.305h-3.55v-1.305Zm4.657-6.667h3.562v1.294h-3.562V12.39Zm-4.658 0h3.55v1.294h-3.55V12.39Zm4.658 2.193h3.562v1.305h-3.562v-1.305Zm-4.658 0h3.55v1.305h-3.55v-1.305Zm4.658 2.281h3.562v1.305h-3.562v-1.305Zm-4.658 0h3.55v1.305h-3.55v-1.305Zm4.658 2.193h3.562v1.305h-3.562v-1.305Z" fill="#fff"/></g><g clip-path="url(#c)"><path fill-rule="evenodd" clip-rule="evenodd" d="M53.482.03h8.94l7.579 7.66v14.901c0 1.867-1.558 3.377-3.475 3.377H53.482c-1.925 0-3.481-1.51-3.481-3.377V3.407C50 1.54 51.556.03 53.48.03Z" fill="#E5252A"/><path fill-rule="evenodd" clip-rule="evenodd" d="M62.416.03v7.603H70L62.416.03Z" fill="#fff" fill-opacity=".302"/><path d="M53.87 19.383v-4.738h2.078c.514 0 .922.136 1.23.415.307.272.46.641.46 1.101 0 .46-.153.83-.46 1.102-.308.279-.716.415-1.23.415h-.829v1.705h-1.25Zm1.25-2.735h.688c.187 0 .334-.04.434-.13a.44.44 0 0 0 .154-.357.44.44 0 0 0-.154-.356c-.1-.09-.247-.13-.434-.13h-.689v.973Zm3.033 2.735v-4.738h1.73c.341 0 .662.045.963.143.3.097.575.233.815.42.24.182.434.428.575.74.134.31.207.667.207 1.069 0 .395-.073.752-.207 1.063-.14.311-.334.557-.575.739-.24.188-.514.324-.815.421a3.11 3.11 0 0 1-.962.143h-1.731Zm1.223-1.03h.36c.194 0 .375-.02.542-.066.16-.045.314-.116.461-.213a.966.966 0 0 0 .334-.415c.08-.182.12-.396.12-.642 0-.253-.04-.467-.12-.648a.966.966 0 0 0-.334-.415 1.646 1.646 0 0 0-.461-.214 2.064 2.064 0 0 0-.541-.065h-.361v2.677Zm3.695 1.03v-4.738h3.475v1.03H64.32v.759h1.777v1.024h-1.777v1.925h-1.25Z" fill="#fff"/></g></g><defs><clipPath id="a"><path fill="#fff" d="M0 0h20v26H0z"/></clipPath><clipPath id="b"><path fill="#fff" transform="translate(25)" d="M0 0h20v26H0z"/></clipPath><clipPath id="c"><path fill="#fff" transform="translate(50)" d="M0 0h20v26H0z"/></clipPath></defs></svg>