<svg width="32" height="32" fill="none" xmlns="http://www.w3.org/2000/svg"><rect width="32" height="32" rx="16" fill="#F1F1F1"/><path fill-rule="evenodd" clip-rule="evenodd" d="M14.803 7.142c-2.836.934-3.718 4.574-1.62 6.682.824.827 1.568 1.125 2.821 1.129.88.002 1.171-.05 1.686-.305.795-.393 1.552-1.155 1.942-1.956.442-.905.445-2.496.006-3.391-.394-.806-1.155-1.566-1.945-1.943-.762-.363-2.132-.466-2.89-.216ZM11.188 16.2a2.122 2.122 0 0 0-1.055 1.122c-.079.209-.133 1.421-.133 2.967 0 2.512.011 2.631.285 3.042.358.537 1.287 1.045 2.55 1.395.835.232 1.305.272 3.17.27 1.848-.003 2.343-.046 3.18-.276 1.234-.338 2.173-.858 2.549-1.412.282-.416.287-.478.25-3.216-.041-3.065-.052-3.11-.899-3.745-.332-.25-.518-.26-4.933-.288-3.636-.023-4.666.006-4.964.14Z" fill="#0C0C0C"/></svg>