<svg width="513" height="539" fill="none" xmlns="http://www.w3.org/2000/svg"><path d="m411.876 406.328 1.725-2.713m-1.725 2.712-1.134-.486m1.134.486-9.488 6.022m9.488-6.022 19.413 6.145m0 0-29.98 18.124-17.438-5.357m47.418-12.767 17.217 3.105m-17.217-3.104 20.317-33.453m-.001 0-8.375-2.766m24.752 5.972-16.376-3.207 1.732-13.908m-69.467 60.128-6.894 4.64m6.894-4.64 14.493-9.755 20.143-15.691 17.99-16.32 15.508-16.628 12.759-16.61m-16.258 65.343 19.476-33.351m14.009.313 11.44-2.529m-11.44 2.529-14.008-.312 2.857-39.734m11.151 40.046 1.104-39.52m-12.256-.528-1.253-.267m13.509.794-12.256-.526-.576-1.391m0 0 4.305-7.146 7.223-13.761m-11.528 20.907-5.499 9.133m-87.787 79.644 7.619 1.289 33.296 2.259m-40.915-3.548-.527.353m41.442 3.195 14.257-.059 11.72-2.89 31.45-17.723 9.231-5.741 6.303-8.421 17.219-31.68m-90.18 66.514 30.613-17.85 14.748.073m-45.361 17.777-16.584-2.831-23.296-1.415m130.06-62.268 3.077-10.223m-3.077 10.223-5.919 7.839-1.374-38.041m7.293 30.202-2.082-36.829m5.159 26.606.25-12.385-2.454-33.638m2.204 46.023-2.44-35.352m.236-10.671-2.205-12.39m2.205 12.39-.236 10.672m.236-10.672-13.992-18.334m11.787 5.944-4.565-13.875-3.158-7.008m7.723 20.883-9.826-12.024m2.103-8.859 1.074-4.527.322-15.375-5.285-34.685-3.382-14.194m7.271 68.781-2.103 8.859m-33.661 129.396 12.067-2.895 18.111-32.745m-30.178 35.64 18.738-33.111m-18.738 33.111-31.104 17.718m61.282-53.356 8.723-5.259-17.604 32.262m8.881-27.003-.311-38.947m0-.001-10.025 1.955-6.353-13.208m16.378 11.253 7.66-4.353m-7.66 4.353-11.329-20.868m18.989 16.515 5.21-6.627m-5.21 6.627-14.762-24.565m-4.227 8.05 4.227-8.05m19.972 17.939 2.719-8.745m-2.719 8.745-16.46-25.081m-3.512 7.142 2.471-4.707m20.22 13.901-16.327-22.998m-2.852 6.662-1.041 2.435m1.041-2.435 2.852-6.662m2.571-6.008-2.571 6.008m2.571-6.008 1.165-2.723m.796-3.357-.796 3.357m6.057-5.208-3.792-4.34M381.194 134.46l2.911 5.445m4.099.697-7.011-6.14-18.377-14.774m25.388 20.914 3.664.621m-3.664-.621-4.099-.696-.017-.002-8.025-1.364-17.727-.721m4.48-18.131 6.333 8.211m-6.333-8.211-18.443-13.519-18.237-12.058-17.754-10.4m0 0-16.998-8.569m16.998 8.569 16.558 14.998m-33.556-23.567-15.97-6.575m15.97 6.575 19.809 16.662m-35.779-23.237-14.675-4.452m14.675 4.452 22.902 17.97 12.877 5.267m-50.454-27.689-13.127-2.22-33.037-.202-13.129.1-10.872 2.776-30.227 19.197-8.973 5.85-6.171 8.628-15.604 32.73-3.161 11.024-.191 12.947-.006.487m134.498-91.317 25.785 18.898m-160.283 72.419 4.565 33.786 2.49 13.815m-7.055-47.601 2.83 15.653m-2.83-15.653 15.679-32.001m-8.624 79.602 5.125 15.492 3.467 7.602m-8.592-23.094-4.225-31.947m12.817 55.041 3.174 6.96m-3.174-6.96-13.389 11.194m16.563-4.234.398.872.669 1.467 10.182 18.01 12.491 18.783m-23.74-39.132-16.563 4.234m40.303 34.898 12.797 16.848m-12.797-16.848 1.126-22.035-14.401-21.559 17.613-28.99m8.459 89.432 1.785 2.35.135.159m-1.92-2.509-32.165-16.809m34.085 19.318-3.21 5.915m3.21-5.915 16.267 19.079m0 0 8.486 8.954m-8.486-8.954 5.904-16.236m2.582 25.19.68.72m-.68-.72-3.008 5.691-24.955-27.811m28.643 22.84 6.046 6.378m-6.046-6.378 1.764 7.245m158.433-199.675-2.867 10.243m2.867-10.243-15.004-10.993M369.15 127.9l14.938 12.005m-39.714-33.737 9.773 10.739m0 0-14.813-9.783m14.813 9.783-2.295 21.32m0 0 6.484-.408m-6.484.408-12.86.811M326.137 94.11l13.197 13.013M324.94 98.71l14.394 8.416.826 26.952M324.94 98.71l-13.747-6.904m13.747 6.904 4.217 29m11.003 6.366 6.799 4.458m-6.799-4.458-11.002-6.368m11.002 6.368-1.806 5.057m-9.197-11.423-10.488-5.192m10.488 5.192-3.38 12.499-.233.857m-6.875-18.548-9.802-3.92m9.802 3.92-4.001 20.475m-3.475-51.189 7.476 30.713m-4.001 20.476 3.682-.843 20.642-3.112m-24.324 3.955-17.035 3.89m-11.11-63.87 11.792 3.525 10.551 32.06m-22.343-35.586-10.5-1.704m10.5 1.704 13.392 33.009 8.952 2.576-3.454 26.508m-29.39-63.797-9.017.173-30.727-19.498m39.744 19.325 15.949 33.542m0 0 7.944 1.172-2.283 30.861m-5.661-32.033-6.794.267-18.172-33.635-7.363 2.079m32.329 31.289-1.191 38.116-5.011.726m11.863-6.809-13.855 12.301m-47.499-97.2 11.334-.089 28.411 19.414M201.446 61.79l34.833.192m0 0-9.321 2.441m0 0-7.109 4.801m7.109-4.8-36.384.143-8.38 5.468-30.82 19.58m75.584-25.192 32.686 19.136m20.019 33.275-4.129 3.156-21.445-32.452m25.574 29.296-20.019-33.274-5.555 3.978m0 0-3.621 5.841m28.473 63.847 2.603-2.097-1.831 3.618m0 0 .725 1.434.079.153.896 1.765.1.2.96 1.894.585 1.15m-3.345-6.596-1.459-2.877-.001-.002-.34-.669-3.625-9.3-2.053-8.295-22.862-27.277m-72.862-32.162 5.683-8.129 37.655-.81m-43.338 8.94-2.826 10.707m2.826-10.708-31.308 20.079-3.196 11.318m34.504-31.397 38.608-1.815m4.73-7.124-4.73 7.124m4.73-7.124 34.24 18.312m-38.97-11.188-2.216 9.37m2.216-9.37 34.961 16.84.388.189m22.412 31.169 2.653-4.56 2.72 35.878m-5.372-31.318-1.113 5.901m1.113-5.901-22.413-31.17-1.592 7.632-35.973-15.29m59.978 38.828 2.227 23.452m-3.34-17.551.466 7.154m-.466-7.154.978 9.223m-.978-9.223-22.892-29.438.497 9.316m-107.366-.767 31.678-20.689m0 0 .001.205.148 12.948m-.149-13.153 39.218-3.151m0 0 .385 11.496m36.085 13.111 2.611 10.86m-2.611-10.86-36.085-13.11m-86.849 44.78 15.569-32.436-.088 13.869m0 0 3.09 16.225 32.013-22.221m-35.104 5.997 31.915-21.406m0 0 3.189 15.41m-3.189-15.41 39.454-4.808m0 0 3.033 13.451m66.737 54.675 6.583 10.814m-6.583-10.814-19.62-18.544 8.681 14.307m17.522 15.051 5.761 8.216m-5.761-8.216-14.488-12.445-.106-.092-2.928-2.514m23.283 23.267.229.325.114.164 1.81 2.58 7.073 8.974m-9.226-12.043 9.664-1.382m-.438 13.425 1.646 2.09.179.225.204.261m-2.029-2.576.015-.482.423-12.943m1.591 16.001 5.606 6.422.067.075 4.457 5.105 10.97 11.435 11.607 11.054 6.586 5.733m-39.293-39.824-11.981-7.571m51.274 47.395.017.014 2.165 1.884m-2.182-1.898-.092-.596M183.255 134.858l-6.232-17.424 39.298-6.767m0 0 5.669 15.192m-5.669-15.192 35.663 10.52m-29.994 4.672-38.735 9 9.216 19.142m29.519-28.142 8.245 16.675m-8.245-16.675 34.701 7.555m0 .001-4.652-12.083-.056-.144 22.304 24.711m-91.032-11.039-31.961 23.121-6.284-18.323-15.939 31.428 5.873 17.625 3.478 29.816m118.269-85.113 6.747 13.384m-6.747-13.384 21.222 21.784m-134.112 52.808-8.857-19.296 16.35-30.73 9.419 20.112 31.757-24.09m37.766-11.466-37.765 11.467 12.069 20.52-31.4 25.112m57.096-57.099 10.703 17.861m-10.703-17.861 33.202 4.264m8.681 14.307 10.475 14.967-28.669 3.039m-107.796 56.312-2.328-27.42m0 0 .136.237 11.59 20.382m-11.726-20.619 16.912-29.914 12.427 21.542m0 .002 15.237 22.562m30.894-26.161-14.731-21.515 36.4-14.125m-21.669 35.64 17.13 22.088-30.247 27.219m13.117-49.307 34.654-16.923m-12.985-18.717 12.985 18.717m-12.985-18.717 31.179.709m-18.194 18.008 8.257 10.551.01.012.264.337 6.507 8.315m-112.651 55.109-.785-24.81m32.85-6.429 30.894-26.161m75.406-4.616-12.083-15.348 14.961 11.369m-91.401 57.9-17.777-23.147-18.449 27.987 16.828 22.078-3.372 19.156m22.77-46.073-19.398 26.918 18.935 22.157m.463-49.075 19.983 23.266m29.475-28.258-19.21-22.227 32.562-19.795m-13.352 42.022-29.476 28.259m29.476-28.259 20.913 21.912m-20.913-21.912 30.163-22.685-16.811-19.337m0 0 25.712-6.907m0 0 13.469 15.436m-82.009 61.752-20.446 25.809m20.446-25.809 21.796 22.913m60.213-84.666 8.641 3.737m-8.641-3.737-22.37 10.808.364.38 17.897 18.697-27.511 25.521m31.62-55.406 14.604 15.226m0 0 5.008-.055m-5.008.055 15.456 14.721M205.69 294.419l20.676 21.793m0 0-6.023 9.262m6.023-9.262 6.137 5.852m15.429-30.543 28.593-29.258m-28.593 29.258-21.565 24.689m21.565-24.689 18.028 17.185m10.565-46.443 22.198 21.152m0 0 4.403 3.818m-4.403-3.818-14.127 15.444m38.792-43.681 9.084 7.894m-9.084-7.894-18.739-17.851-.614-.584 18.713-14.659m.64 33.094 14.817-18.373m0-.001 8.496 7.393.257.224.969.844m-9.722-8.461 1.159-3.722m-40.641 50.335 24.665-28.238m147.223 38.812 11.844-19.376m.001 0-24.693-30.162-11.518 18.413m0 0-35.39-21.45m35.39 21.45-14.969 18.887m14.969-18.886 23.934 30.572.432.553m0 0-15.463 19.858-18.835 19.957m34.298-39.815 6.665 32.045-14.644 19.023-17.843 19.083m20.886-137.288-7.912 17.599-36.641-19.039-10.267 16.002m0 0-36.467-5.808m36.467 5.808-13.251 16.407-16.014 16.5m1.193-51.533.299-.623 5.619-11.662m-5.918 12.285 38.34 2.623 7.145-15.307 37.408 16.747 4.231-16.476m-87.124 12.413-29.26 14.217-.194.095m29.454-14.314-8.395 12.818m0 .002-27.039 11.016-.438.177m27.477-11.193-10.75 13.117m25.063-38.22 3.366-11.538m-3.366 11.538-30.8 17.272 2.66-8.784m-2.661 8.786-4.571 9.323-5.38 8.131-.022.032-.334.507-.313.471-.102.156-.267.402m0 0-.517.627-.223.271-2.248 2.725-.126.153-5.052 6.128-2.206 2.237-.537.546-2.299 2.333-.132.134-4.605 4.673-3.673 3.197-7.549 6.567-12.463 9.419-2.011 1.326-.144.096-11.325 7.474m0 0 9.538 4.563 17.934-11.852 23.158 18.9 20.653-15.724 28.932 28.894 21.079-18.736m-121.294-6.045-7.205 4.153-.078.046-6.96 4.008-14.741 7.363m0 0-.082 9.732 19.636-9.804 13.921 24.672 23.729-13.699m-57.204-10.901-13.999 5.969-.965.411-14.905 5.28-.445.126m0 0-12.16 3.41m0 0-1.961.551m0 0-1.562.314-12.401 2.509m13.963-2.823-14.758 14.881m.795-12.058-6.383 5.211-.164.134-12.763 10.42m19.31-15.765-3.316.383m0 0-9.788 1.132-3.462.056-.621.009-7.929.127-10.713-1.123m32.513-.201-23.291-24.953-1.093 6.369-37.369-12.191m-10.851-61.135-15.714 15.09-13.583 15.253m0 0L87.99 282.852m11.213-15.188 23.944-10.399m-35.157 25.587-8.636 14.882m8.636-14.882 26.149-13.298m-34.785 28.18-18.08 44.004m18.08-44.004-5.88 14.335m5.88-14.335 27.897-16.17m-45.976 60.174-3.467 15.601m3.467-15.601 12.2-29.669m-15.667 45.27-.061 14.47 7.693 33.955 3.624 13.869m-11.256-62.294 12.691-31.722m-1.435 94.016 7.274 12.161m-7.274-12.161-7.893-34.75m15.167 46.911 25.685 24.308 10.543 9.88m-36.228-34.188 10.886 10.199m-10.886-10.199-8.235-35.489-6.716-11.067-.216-.354 12.455-35.478m38.94 116.576 13.858 7.783 16.992 5.499 19.874 3.065m-50.724-16.347-25.342-23.989m76.066 40.336 28.862 3.539 19.61.474m-48.472-4.013 22.432.526.405.053 25.635 3.434m-48.472-4.013-23.218-23.649 23.482.408m48.208 27.254 21.448-1.78 22.897-4.027m0 0 23.916-6.224m-23.916 6.224-19.462-4.415m43.378-1.809 24.473-8.314 24.553-10.255m-49.026 18.569-15.835-5.388m64.861-13.181-8.296-8.288-28.342 11.853m36.638-3.565 24.144-11.999 23.258-13.511m0 0-.947-12.239-26.866 15.595-13.689-26.73-.067-.131m129.883-56.492 12.513-24.198 11.212-18.599m0 0-6.033-32.823 8.072-18.536m5.59 33.531-5.59-33.531m1.218-47.466-6.995-12.274-23.899-26.065m30.894 38.339-24.354-26.743 3.063 13.434m-9.603-25.03-9.827-9.605-12.878-7.495m22.705 17.1-35.862-9.479m35.862 9.479 6.54 11.597-36.898-10.953m7.653-17.744-15.65-5.308-30.629-6.643m46.279 11.951-32.685-7.315m-13.594-4.636-31.242 13.442 10.847 3.82m20.395-17.262 13.595 4.636m-47.127-8.04-24.661 13.959m5.317-12.74-20.947 13.678m172.483 103.363-24.852-29.225m24.852 29.225 4.22-17.367m-62.539-42.948-3.941 14.341-39.567.4m-28.14 8.489.725-8.096m-.725 8.096-11.054 23.886m145.241-4.169-24.842-28.334m.549-15.073-.548 15.073-37.698-14.612m38.246-.461 24.674 27.503-.38 15.905 5.343 34.154m-29.637-77.562-37.521-12.672m0 .002-.725 13.132-40.142 3.204m.793-10.593-.794 10.593-31.506 20.025m72.374-36.363-2.44-11.715m2.44 11.715-40.073 5.743m-1.753-9.477 1.753 9.479-31.575 22.522m29.822-32.001-4.231-8.217m4.231 8.217-31.022 24.729m0-.003 1.199 7.274-13.154 29.815m76.859-79.918 5.503 10.123-39.386 7.979m-4.23-8.216-6.594-6.836m6.594 6.836-29.875 26.609m.001-.001 3.084 6.336-14.229 34.596m11.145-40.932-4.887-5.3m4.887 5.3-13.459 35.973 2.314 4.959m70.723-85.815 8.409 8.388-38.113 9.886m-6.594-6.835-8.81-5.359m8.81 5.359-28.167 28.144m-12.275 37.098 3.702 4.174.749 4.11m106.733-76.702-34.443-8.263m0 0-11.119-6.547m11.119 6.547-36.298 11.438m25.179-17.985-33.99 12.626m-19.357 33.504-6.59-4.189m6.59 4.189-12.275 37.1m1.012 5.29-1.013-5.291-5.017-3.327 10.703-37.962m25.947-29.314-25.947 29.314m0 0-8.162-3.021 23.261-30.114-12.675-2.24m-18.456 71.258 5.329 2.079.766 3.726m12.361-77.063-14.276-.647m14.276.647-20.167 30.537m0 .001 9.581 1.817-8.68 38.134m-.901-39.951-10.828-.594m10.828.594-5.59 33.268m53.87-77.69-28.113 13.885m-14.276-.648-15.629.937m15.629-.937-16.719 30.59m0 .001-11.889.624m11.889-.624-2.622 25.417m-9.267-24.793 12.98-30.277-16.723 2.486m0 0-17.545 3.983m17.545-3.983-7.981 26.234m25.008-39.284-17.027 13.052m-17.545 3.981-3.339.998m3.339-.998-.966 5.675M112.785 252.41l21.324-7.516m0 0-10.963 12.37m10.963-12.37 20.636 5.771m-20.637-5.772 11.352-10.935m-22.314 23.307-9.008 12.289m9.008-12.289 33.06 5.598 3.622-4.138m-45.69 10.829-6.888 12.011m6.888-12.011 35.296 2.704m0-.002 6.772-9.394 10.761 6.595m-17.533 2.801-5.128 9.163m-70.832 30.648-2.976 13.548m2.976-13.548 29.149-18.968m4.627-11.537-4.627 11.537m4.627-11.537 37.056-.144m-41.683 11.681-2.259 10.866m2.259-10.866 38.295-2.898m3.388-8.783-3.388 8.783m3.388-8.783 35.435 15.817.568.252m-39.391-7.286-1.567 8.251m1.567-8.251 36.894 14.073 2.497-6.787m23.684 31.407 1.271-3.595.726 3.227m-135.492-2.911.031 12.523m-.031-12.523 29.865-21.648m0 0 .184 10.004m-.184-10.004 38.987-5.513m0 0 .298 7.576m37.413 10.455-.342-5.841 18.561 19.257M61.17 384.882l-3.424-13.074 12.783-33.669m0 0 3.097 11.265m-3.097-11.265 30.019-24.168m0 0 2.661 8.964m-2.661-8.964 39.1-7.941m0 0 2.178 6.764m-2.178-6.764 37.413 10.456m1.785 5.21-1.784-5.208 13.708 13.884M73.625 349.406l6.17 9.79m-6.17-9.79 29.584-26.469m-23.414 36.259 9.199 8.113m-9.199-8.113-11.694 37.109 10.395 9.53m1.299-46.639 28.548-28.513m0-.001-5.134-7.747 38.617-10.14m-33.483 17.887 7.559 6.379-26.908 30.248m19.349-36.627 36.94-11.871.591-.189m-4.048-5.827 4.048 5.827m-4.048-5.827 37.02 8.901m-32.972-3.074 5.87 4.775m-5.87-4.775 36.185 7.558 4.596 3.671 1.199.567m-5.795-4.236-3.213-4.485 8.507 8.486m-100.13 111.81 14.386 8.006m-23.113-44.164 13.754 7.421m-13.754-7.421 10.498-38.526m0 0 12.122 6.257m-13.893 68.426-8.726-36.159m47.291-63.898-9.886-4.875 35.842-13.663m-25.956 18.538 12.075 3.261 30.727-15.765-9.236-2.405m-33.566 14.909 33.566-14.909m-7.61-3.629 7.61 3.629m-7.61-3.629 34.911 6.453m-27.301-2.824 20.791 3.514m-78.536 119.459-9.359-36.743m9.359 36.743 24.814 23.767m-24.814-23.767 17.701 5.616m-27.06-42.359 16.934 5.133 10.126 37.224m-27.06-42.357 8.867-39.691M116 377.819l-14.883-4.252 24.672-31.63M116 377.819l-6.817 40.572 19.861 2.701M116 377.819l17.418 2.132-4.374 41.14M116 377.819l21.617-32.257.246-.365 14.072 1.562M119.31 455.615l24.104 23.65m-24.104-23.65 20.761 3.066m0-.001-11.027-37.589m0 0 22.471.17m0 0 24.691-2.411m-24.691 2.411 1.575-41.374m0 0-19.672.063 18.517-33.193m0 0 15.841-.188m-15.841.188 27.368-16.203m-11.527 16.015 17.333-1.957m-17.333 1.957 23.54-16.207m-27.763 128.725-12.038-37.827m12.038 37.827 22.168 23.767 24.6-2.07m-46.768-21.697 25.795-2.309m-13.142-37.928 13.142 37.93m-13.142-37.93 26.458-4.983m-26.458 4.983-1.534-41.256m-21.582 2.293 21.582-2.292m-21.582 2.292 14.686-33.316m42.545 134.213 22.888 3.777m-22.888-3.777 26.323-4.665m-26.323 4.665-20.973-24.006m0 0 27.641-5.023m-14.325-37.888 27.725-7.491m-27.725 7.491-4.891-40.782m-23.101 4.509 23.102-4.508m-23.102 4.508 10.437-32.981m0 0 .247-.049 18.268-3.658m0 0 19.354-5.403m13.666 140.616 27.542-7.197m-27.542 7.197-19.655-24.364m0 0 28.955-7.673m-28.956 7.675-14.325-37.889m27.726-7.492 28.446-9.871m-28.446 9.871-8.427-39.953-12.47 3.434-.359.1-.898.248-.073.019-10.389 2.861m0 0 5.851-32.18m19.354-5.402-1.016 30.921 24.807-8.701m-23.791-22.22 19.831-7.009m-19.831 7.009 9.971-13.566m31.237 146.985 28.224-9.615m-28.224 9.615-18.242-24.84m0 0 29.7-10.197m-29.7 10.198-15.555-37.706m16.38-48.654 24.943-10.583m-24.943 10.583-3.96-29.228m0-.001 5.044-11.837m-5.044 11.837 19.926-8.485m29.675 139.298 12.085 6.689m-12.085-6.689-16.766-25.422m0 0 29.849-12.534-18.056-36.921m-11.792 49.455-16.809-37.381m28.601-12.075-28.602 12.074-12.066-38.782m24.943-10.581 15.725 37.29 28.178-14.039 19.266 36.336m-38.589-71.852-24.58 12.263-8.823-26.659-.154-.471m72.146 86.72-29.388 14.625 15.259 26.101 27.885-13.865 4.555 10.155m-18.311-37.017 28.329-16.42m-66.918-55.431 19.322 35.514 27.182-15.722 20.414 35.639m-85.651-87.393 4.522 6.852.29.437 7.541-4.347.219-.126 11.208-6.461 18.682 21.908 22.41-14.859m26.002 31.267-.241-.291-25.761-30.976m26.002 31.267-25.637 17.085-22.775-33.491m48.412 16.406 21.47 34.846m-21.47-34.846 23.584-18.097m-2.114 52.942-26.692 17.877 12.293 27.685 25.306-17.009-2.446 14.501m-62.53-140.604-16.561 12.538-13.992-1.608m30.553-10.93 11.099-9.684.012-.011 3.767-3.287m-14.878 12.982-18.089 1.511m96.684 77.074-24.526 18.964 10.906 28.553 23.244-18.072-5.546 16.882m-4.077-46.325-22.413-33.977m22.413 33.977 9.623 29.444 20.736-18.768m-30.359-10.676 21.883-19.66m-54.723-59.483-12.457 10.951-1.342 1.183-.243.212-4.463 3.926-27.251-15.714m45.756-.558 31.505 26.43 18.182-18.999m-49.687-7.431L350.713 261.9m-.001-.002 12.926-13.174m-12.926 13.174-21.746 4.729m115.823 97.516-8.476-30.336m0-.003-23.218-33.052m-49.457-52.028 33.967 9.099 33.672 23.93 3.831 5.152.023.031 20.018 26.912 7.484 31.211-10.628 21.786m-88.367-118.121-24.893 7.979m97.752 126.769 8.291-19.33M279.663 116.835l5.515-1.717.593 38.576-4.227 1.437-1.881-38.296Z" stroke="#0C0C0C" stroke-width="2.231" stroke-miterlimit="10" stroke-linecap="round" stroke-linejoin="round"/><path d="M404.082 5.402c0 29.616 3.488 35.993 13.954 25.527-10.466 10.466-4.089 13.955 25.528 13.955-29.617 0-35.994 3.489-25.528 13.955-10.466-10.466-13.954-4.09-13.954 25.527 0-29.616-3.489-35.993-13.955-25.527 10.466-10.466 4.089-13.955-25.527-13.955 29.616 0 35.993-3.489 25.527-13.955 10.466 10.466 13.955 4.09 13.955-25.527Z" fill="#0C0C0C" stroke="#fff" stroke-width=".405" stroke-miterlimit="10" stroke-linecap="round" stroke-linejoin="round"/><g clip-path="url(#a)"><path d="M14.384 140.952c0 9.889 1.165 12.018 4.66 8.524-3.495 3.494-1.365 4.659 8.524 4.659-9.89 0-12.019 1.165-8.524 4.66-3.495-3.495-4.66-1.366-4.66 8.523 0-9.889-1.164-12.018-4.659-8.523 3.495-3.495 1.365-4.66-8.524-4.66 9.89 0 12.019-1.165 8.524-4.659 3.495 3.494 4.66 1.365 4.66-8.524Z" fill="#0C0C0C" stroke="#fff" stroke-width=".135" stroke-miterlimit="10" stroke-linecap="round" stroke-linejoin="round"/></g><path d="M483.339 95.353c-1.261-1.9-4.535-2.743-9.024-.335-3.191-3.962-6.544-4.46-8.444-3.2-1.901 1.26-2.745 4.543-.335 9.024-3.964 3.2-4.469 6.542-3.2 8.444.545.822 1.464 1.445 2.699 1.695 1.622.328 3.777.01 6.333-1.358 3.199 3.964 6.542 4.469 8.444 3.2 1.901-1.26 2.737-4.545.335-9.024 3.954-3.193 4.461-6.544 3.192-8.446Z" fill="#0C0C0C" stroke="#fff" stroke-width=".1" stroke-miterlimit="10" stroke-linecap="round" stroke-linejoin="round"/><path d="M479.687 5.227c-.23-1.044-1.52-1.966-3.891-1.671-.726-2.272-2.109-3.057-3.153-2.826-1.044.23-1.968 1.523-1.671 3.89-2.274.73-3.06 2.107-2.826 3.154.099.451.396.88.894 1.197.654.418 1.651.643 3 .476.73 2.275 2.107 3.06 3.153 2.826 1.044-.23 1.965-1.525 1.671-3.89 2.269-.73 3.057-2.11 2.823-3.156Z" fill="#0C0C0C" stroke="#fff" stroke-width=".047" stroke-miterlimit="10" stroke-linecap="round" stroke-linejoin="round"/><path d="M87.779 204.119c0 5.175-1.906 9.371-1.906 9.371s-1.906-4.196-1.906-9.371c0-5.176 1.906-9.372 1.906-9.372s1.906 4.196 1.906 9.372ZM87.779 223.202c0 5.176-1.906 9.372-1.906 9.372s-1.906-4.196-1.906-9.372c0-5.175 1.906-9.371 1.906-9.371s1.906 4.196 1.906 9.371ZM95.415 215.567c-5.176 0-9.372-1.906-9.372-1.906s4.196-1.907 9.372-1.907 9.371 1.907 9.371 1.907-4.195 1.906-9.371 1.906ZM76.33 215.567c-5.176 0-9.371-1.906-9.371-1.906s4.195-1.907 9.371-1.907 9.372 1.907 9.372 1.907-4.196 1.906-9.372 1.906Z" fill="#0C0C0C"/><path d="M93.968 208.261c-3.66 3.66-7.975 5.279-7.975 5.279s1.62-4.315 5.28-7.974c3.659-3.66 7.974-5.279 7.974-5.279s-1.62 4.314-5.28 7.974ZM80.473 221.756c-3.66 3.66-7.974 5.279-7.974 5.279s1.619-4.315 5.279-7.975c3.66-3.66 7.974-5.279 7.974-5.279s-1.619 4.315-5.279 7.975ZM91.272 221.756c-3.66-3.66-5.28-7.975-5.28-7.975s4.316 1.619 7.976 5.279 5.279 7.975 5.279 7.975-4.315-1.619-7.975-5.279ZM77.778 208.261c-3.66-3.66-5.28-7.974-5.28-7.974s4.315 1.619 7.975 5.279c3.66 3.659 5.28 7.974 5.28 7.974s-4.316-1.619-7.975-5.279Z" fill="#0C0C0C"/><path d="M87.779 204.119c0 5.175-1.906 9.371-1.906 9.371s-1.906-4.196-1.906-9.371c0-5.176 1.906-9.372 1.906-9.372s1.906 4.196 1.906 9.372ZM87.779 223.202c0 5.176-1.906 9.372-1.906 9.372s-1.906-4.196-1.906-9.372c0-5.175 1.906-9.371 1.906-9.371s1.906 4.196 1.906 9.371ZM95.415 215.567c-5.176 0-9.372-1.906-9.372-1.906s4.196-1.907 9.372-1.907 9.371 1.907 9.371 1.907-4.195 1.906-9.371 1.906ZM76.33 215.567c-5.176 0-9.371-1.906-9.371-1.906s4.195-1.907 9.371-1.907 9.372 1.907 9.372 1.907-4.196 1.906-9.372 1.906Z" stroke="#fff" stroke-width=".227" stroke-linecap="round" stroke-linejoin="round"/><path d="M93.968 208.261c-3.66 3.66-7.975 5.279-7.975 5.279s1.62-4.315 5.28-7.974c3.659-3.66 7.974-5.279 7.974-5.279s-1.62 4.314-5.28 7.974ZM80.473 221.756c-3.66 3.66-7.974 5.279-7.974 5.279s1.619-4.315 5.279-7.975c3.66-3.66 7.974-5.279 7.974-5.279s-1.619 4.315-5.279 7.975ZM91.272 221.756c-3.66-3.66-5.28-7.975-5.28-7.975s4.316 1.619 7.976 5.279 5.279 7.975 5.279 7.975-4.315-1.619-7.975-5.279ZM77.778 208.261c-3.66-3.66-5.28-7.974-5.28-7.974s4.315 1.619 7.975 5.279c3.66 3.659 5.28 7.974 5.28 7.974s-4.316-1.619-7.975-5.279Z" stroke="#fff" stroke-width=".227" stroke-linecap="round" stroke-linejoin="round"/><path d="M329.97 525.201c0 2.215-.815 4.011-.815 4.011s-.816-1.796-.816-4.011c0-2.216.816-4.012.816-4.012s.815 1.796.815 4.012ZM329.97 533.369c0 2.216-.815 4.012-.815 4.012s-.816-1.796-.816-4.012c0-2.215.816-4.011.816-4.011s.815 1.796.815 4.011ZM333.239 530.101c-2.216 0-4.012-.816-4.012-.816s1.796-.816 4.012-.816c2.215 0 4.011.816 4.011.816s-1.796.816-4.011.816ZM325.07 530.101c-2.216 0-4.012-.816-4.012-.816s1.796-.816 4.012-.816c2.215 0 4.011.816 4.011.816s-1.796.816-4.011.816Z" fill="#0C0C0C"/><path d="M332.62 526.974c-1.567 1.566-3.414 2.259-3.414 2.259s.693-1.846 2.26-3.413c1.566-1.567 3.413-2.26 3.413-2.26s-.693 1.847-2.259 3.414ZM326.843 532.75c-1.566 1.567-3.413 2.26-3.413 2.26s.693-1.847 2.259-3.414c1.567-1.566 3.414-2.26 3.414-2.26s-.693 1.847-2.26 3.414ZM331.466 532.75c-1.567-1.567-2.26-3.414-2.26-3.414s1.847.694 3.414 2.26c1.566 1.567 2.259 3.414 2.259 3.414s-1.847-.693-3.413-2.26ZM325.689 526.974c-1.567-1.567-2.26-3.414-2.26-3.414s1.847.693 3.414 2.26c1.567 1.567 2.26 3.413 2.26 3.413s-1.847-.693-3.414-2.259Z" fill="#0C0C0C"/><path d="M329.97 525.201c0 2.215-.815 4.011-.815 4.011s-.816-1.796-.816-4.011c0-2.216.816-4.012.816-4.012s.815 1.796.815 4.012ZM329.97 533.369c0 2.216-.815 4.012-.815 4.012s-.816-1.796-.816-4.012c0-2.215.816-4.011.816-4.011s.815 1.796.815 4.011ZM333.239 530.101c-2.216 0-4.012-.816-4.012-.816s1.796-.816 4.012-.816c2.215 0 4.011.816 4.011.816s-1.796.816-4.011.816ZM325.07 530.101c-2.216 0-4.012-.816-4.012-.816s1.796-.816 4.012-.816c2.215 0 4.011.816 4.011.816s-1.796.816-4.011.816Z" stroke="#fff" stroke-width=".097" stroke-linecap="round" stroke-linejoin="round"/><path d="M332.62 526.974c-1.567 1.566-3.414 2.259-3.414 2.259s.693-1.846 2.26-3.413c1.566-1.567 3.413-2.26 3.413-2.26s-.693 1.847-2.259 3.414ZM326.843 532.75c-1.566 1.567-3.413 2.26-3.413 2.26s.693-1.847 2.259-3.414c1.567-1.566 3.414-2.26 3.414-2.26s-.693 1.847-2.26 3.414ZM331.466 532.75c-1.567-1.567-2.26-3.414-2.26-3.414s1.847.694 3.414 2.26c1.566 1.567 2.259 3.414 2.259 3.414s-1.847-.693-3.413-2.26ZM325.689 526.974c-1.567-1.567-2.26-3.414-2.26-3.414s1.847.693 3.414 2.26c1.567 1.567 2.26 3.413 2.26 3.413s-1.847-.693-3.414-2.259Z" stroke="#fff" stroke-width=".097" stroke-linecap="round" stroke-linejoin="round"/><path d="M390.796 450.451c0 20.086 3.263 26.697 9.78 19.833-6.525 6.864.767 7.925 21.876 3.183-21.101 4.742-26.378 9.884-15.832 15.442-10.554-5.55-9.307 1.714 3.736 21.8-13.034-20.094-19.56-23.522-19.56-10.3 0-13.222-6.525-9.794-19.567 10.292 13.042-20.086 14.29-27.35 3.735-21.8 10.555-5.55 5.278-10.7-15.832-15.442 21.102 4.742 28.394 3.681 21.876-3.183 6.526 6.872 9.788.261 9.788-19.825Z" fill="#0C0C0C" stroke="#fff" stroke-width=".38" stroke-miterlimit="10" stroke-linecap="round" stroke-linejoin="round"/><g clip-path="url(#b)"><path d="M50.523 87.38a3.92 3.92 0 0 1 7.839.09l-.024 2.051 1.466-1.435a3.92 3.92 0 1 1 5.483 5.604l-1.374 1.345h1.925a3.92 3.92 0 0 1 0 7.84H63.77l1.461 1.461a3.92 3.92 0 0 1-5.543 5.544l-1.499-1.499-.008 2.119a3.92 3.92 0 1 1-7.84-.03l.008-2.066-1.465 1.455a3.92 3.92 0 0 1-5.524-5.563l1.506-1.495-2.12-.017a3.92 3.92 0 1 1 .06-7.84l2.056.017-1.444-1.465a3.92 3.92 0 0 1 5.584-5.503l1.495 1.517.025-2.13Z" fill="#0C0C0C" stroke="#fff" stroke-width=".155" stroke-linecap="round" stroke-linejoin="round"/></g><defs><clipPath id="a"><path fill="#fff" transform="translate(.886 140.637)" d="M0 0h27.019v27.019H0z"/></clipPath><clipPath id="b"><path fill="#fff" transform="translate(38.754 83.402)" d="M0 0h31.106v31.106H0z"/></clipPath></defs></svg>