<svg width="32" height="32" viewBox="0 0 32 32" fill="none" xmlns="http://www.w3.org/2000/svg">
<rect width="32" height="32" rx="16" fill="#F1F1F1"/>
<path fill-rule="evenodd" clip-rule="evenodd" d="M22.9999 11.85C22.9999 13.4278 21.7203 14.7074 20.1425 14.7074C18.5648 14.7074 17.2859 13.4278 17.2859 11.85C17.2859 10.2723 18.5648 8.99268 20.1425 8.99268C21.7203 8.99268 22.9999 10.2723 22.9999 11.85Z" fill="#0C0C0C" stroke="#0C0C0C" stroke-linecap="round" stroke-linejoin="round"/>
<path fill-rule="evenodd" clip-rule="evenodd" d="M14.714 11.85C14.714 13.4278 13.4351 14.7074 11.8566 14.7074C10.2796 14.7074 9 13.4278 9 11.85C9 10.2723 10.2796 8.99268 11.8566 8.99268C13.4351 8.99268 14.714 10.2723 14.714 11.85Z" stroke="#0C0C0C" stroke-linecap="round" stroke-linejoin="round"/>
<path fill-rule="evenodd" clip-rule="evenodd" d="M22.9999 20.0851C22.9999 21.6629 21.7203 22.9418 20.1425 22.9418C18.5648 22.9418 17.2859 21.6629 17.2859 20.0851C17.2859 18.5074 18.5648 17.2278 20.1425 17.2278C21.7203 17.2278 22.9999 18.5074 22.9999 20.0851Z" stroke="#0C0C0C" stroke-linecap="round" stroke-linejoin="round"/>
<path fill-rule="evenodd" clip-rule="evenodd" d="M14.714 20.0851C14.714 21.6629 13.4351 22.9418 11.8566 22.9418C10.2796 22.9418 9 21.6629 9 20.0851C9 18.5074 10.2796 17.2278 11.8566 17.2278C13.4351 17.2278 14.714 18.5074 14.714 20.0851Z" stroke="#0C0C0C" stroke-linecap="round" stroke-linejoin="round"/>
</svg>
