<svg width="29" height="11" viewBox="0 0 29 11" fill="none" xmlns="http://www.w3.org/2000/svg">
<path d="M0.995606 4.60855L0.104178 4.60855L0.104177 6.39141L0.995606 6.39141L0.995606 4.60855ZM27 5.49999L27.6848 6.07066L28.1604 5.49998L27.6848 4.92931L27 5.49999ZM24.9156 1.60623L24.3449 0.921416L22.9753 2.06277L23.546 2.74759L24.9156 1.60623ZM23.546 8.25238L22.9753 8.9372L24.3449 10.0786L24.9156 9.39374L23.546 8.25238ZM0.995606 6.39141L27 6.39141L27 4.60856L0.995606 4.60855L0.995606 6.39141ZM23.546 2.74759L26.3152 6.07066L27.6848 4.92931L24.9156 1.60623L23.546 2.74759ZM26.3152 4.92931L23.546 8.25238L24.9156 9.39374L27.6848 6.07066L26.3152 4.92931Z" fill="white"/>
</svg>
