<svg width="12" height="13" viewBox="0 0 12 13" fill="none" xmlns="http://www.w3.org/2000/svg">
<path fill-rule="evenodd" clip-rule="evenodd" d="M3.63999 0.912713C3.90424 0.648457 4.26265 0.5 4.63636 0.5H7.36364C7.73735 0.5 8.09576 0.648457 8.36001 0.912713C8.62427 1.17697 8.77273 1.53538 8.77273 1.90909V2.77273L10.0901 2.77273C10.0903 2.77273 10.0898 2.77273 10.0901 2.77273C10.0903 2.77273 10.0915 2.77273 10.0918 2.77273L11 2.77273C11.2761 2.77273 11.5 2.99658 11.5 3.27273C11.5 3.54887 11.2761 3.77273 11 3.77273L10.5909 3.77273V11.6818C10.5909 11.935 10.4903 12.1778 10.3113 12.3568C10.1323 12.5358 9.88952 12.6364 9.63636 12.6364H2.36364C2.11048 12.6364 1.86768 12.5358 1.68867 12.3568C1.50966 12.1778 1.40909 11.935 1.40909 11.6818V3.77273L1 3.77273C0.723858 3.77274 0.5 3.54888 0.5 3.27274C0.5 2.99659 0.723857 2.77274 1 2.77273L1.90643 2.77273C1.90732 2.77273 1.9082 2.77273 1.90909 2.77273C1.90998 2.77273 1.91087 2.77273 1.91175 2.77273L3.22727 2.77273V1.90909C3.22727 1.53538 3.37573 1.17697 3.63999 0.912713ZM2.40909 3.77273V11.6364H9.59091V3.77273L2.40909 3.77273ZM7.77273 2.77273L4.22727 2.77273V1.90909C4.22727 1.80059 4.27037 1.69654 4.34709 1.61982C4.42381 1.5431 4.52787 1.5 4.63636 1.5H7.36364C7.47213 1.5 7.57619 1.5431 7.65291 1.61982C7.72963 1.69654 7.77273 1.80059 7.77273 1.90909V2.77273ZM4.63636 5.27273C4.91251 5.27273 5.13636 5.49658 5.13636 5.77273V9.40909C5.13636 9.68523 4.91251 9.90909 4.63636 9.90909C4.36022 9.90909 4.13636 9.68523 4.13636 9.40909V5.77273C4.13636 5.49658 4.36022 5.27273 4.63636 5.27273ZM7.36364 5.27273C7.63978 5.27273 7.86364 5.49658 7.86364 5.77273V9.40909C7.86364 9.68523 7.63978 9.90909 7.36364 9.90909C7.08749 9.90909 6.86364 9.68523 6.86364 9.40909V5.77273C6.86364 5.49658 7.08749 5.27273 7.36364 5.27273Z" fill="#CDCDCD"/>
</svg>
