<svg width="70" height="26" viewBox="0 0 70 26" fill="none" xmlns="http://www.w3.org/2000/svg">
<g opacity="0.3">
<g clip-path="url(#clip0_478_537)">
<path d="M3.47873 0.031189H12.4261L20 7.69546V22.5939C20 24.4576 18.4427 25.968 16.5213 25.968H3.47873C1.55732 25.968 0 24.4576 0 22.5939V3.40529C0 1.54167 1.55732 0.031189 3.47873 0.031189V0.031189Z" fill="#0263D1"/>
<path fill-rule="evenodd" clip-rule="evenodd" d="M12.415 0.031189V7.63253H19.9998L12.415 0.031189Z" fill="white" fill-opacity="0.301961"/>
<path d="M3.22998 18.5383V14.2446H4.79811C5.11174 14.2446 5.40374 14.2901 5.6741 14.374C5.94447 14.4614 6.18961 14.5873 6.4095 14.7551C6.6294 14.9229 6.80244 15.1467 6.92861 15.4264C7.05478 15.7062 7.11967 16.0278 7.11967 16.3915C7.11967 16.7551 7.05478 17.0768 6.92861 17.3565C6.80244 17.6362 6.6294 17.86 6.4095 18.0278C6.18961 18.1956 5.94447 18.3215 5.6741 18.4089C5.40374 18.4928 5.11174 18.5383 4.79811 18.5383H3.22998ZM4.33669 17.6047H4.66473C4.84137 17.6047 5.0072 17.5838 5.155 17.5453C5.3064 17.5033 5.44339 17.4369 5.57317 17.3495C5.70294 17.2621 5.80388 17.1362 5.87598 16.9719C5.95168 16.811 5.98773 16.6152 5.98773 16.3915C5.98773 16.1677 5.95168 15.9719 5.87598 15.8076C5.80388 15.6467 5.70294 15.5208 5.57317 15.4334C5.44339 15.3425 5.3064 15.2796 5.155 15.2376C5.0072 15.1992 4.84137 15.1782 4.66473 15.1782H4.33669V17.6047ZM9.80532 18.5873C9.13842 18.5873 8.58686 18.3775 8.15067 17.9614C7.71448 17.5453 7.49818 17.0208 7.49818 16.3915C7.49818 15.7621 7.71448 15.2376 8.15067 14.8215C8.58686 14.4055 9.13842 14.1957 9.80532 14.1957C10.4614 14.1957 11.0058 14.4055 11.4419 14.8215C11.8745 15.2376 12.0908 15.7621 12.0908 16.3915C12.0908 17.0208 11.8745 17.5453 11.4419 17.9614C11.0058 18.3775 10.4614 18.5873 9.80532 18.5873ZM8.95457 17.2971C9.17446 17.5348 9.45565 17.6537 9.79811 17.6537C10.1406 17.6537 10.4182 17.5348 10.6381 17.2971C10.858 17.0558 10.9661 16.7551 10.9661 16.3915C10.9661 16.0278 10.858 15.7271 10.6381 15.4859C10.4182 15.2481 10.1406 15.1292 9.79811 15.1292C9.45565 15.1292 9.17446 15.2481 8.95457 15.4859C8.73467 15.7271 8.62291 16.0278 8.62291 16.3915C8.62291 16.7551 8.73467 17.0558 8.95457 17.2971ZM14.7224 18.5873C14.0771 18.5873 13.54 18.3914 13.1146 18.0068C12.6856 17.6187 12.4729 17.0803 12.4729 16.3915C12.4729 15.7062 12.6892 15.1677 13.1218 14.7796C13.558 14.3915 14.0879 14.1957 14.7224 14.1957C15.2956 14.1957 15.7642 14.332 16.1355 14.6083C16.5032 14.881 16.7159 15.2446 16.77 15.6992L15.6525 15.9194C15.6056 15.6817 15.4939 15.4894 15.3208 15.346C15.1478 15.2027 14.9459 15.1292 14.7152 15.1292C14.398 15.1292 14.1348 15.2376 13.9221 15.4579C13.7094 15.6817 13.6013 15.9894 13.6013 16.3915C13.6013 16.7936 13.7094 17.1013 13.9185 17.3215C14.1312 17.5453 14.3944 17.6537 14.7152 17.6537C14.9459 17.6537 15.1442 17.5908 15.3064 17.4649C15.4686 17.339 15.5696 17.1712 15.6128 16.9614L16.7556 17.2131C16.651 17.6467 16.4203 17.9824 16.0598 18.2236C15.7029 18.4649 15.2559 18.5873 14.7224 18.5873Z" fill="white"/>
</g>
<g clip-path="url(#clip1_478_537)">
<path fill-rule="evenodd" clip-rule="evenodd" d="M28.4812 0.0329285H37.4241L44.999 7.698V22.5895C44.999 24.4537 43.4388 25.967 41.5168 25.967H28.4812C26.5592 25.967 24.999 24.4537 24.999 22.5895V3.41038C24.999 1.5462 26.5592 0.0329285 28.4812 0.0329285V0.0329285Z" fill="#00733B"/>
<path fill-rule="evenodd" clip-rule="evenodd" d="M37.4121 0.0329285V7.6322H44.9983L37.4121 0.0329285Z" fill="white" fill-opacity="0.301961"/>
<path fill-rule="evenodd" clip-rule="evenodd" d="M30.8892 19.0581H34.4392V20.3631H30.8892V19.0581ZM35.5472 12.3909H39.1085V13.6849H35.5472V12.3909ZM30.8892 12.3909H34.4392V13.6849H30.8892V12.3909ZM35.5472 14.5841H39.1085V15.889H35.5472V14.5841ZM30.8892 14.5841H34.4392V15.889H30.8892V14.5841ZM35.5472 16.865H39.1085V18.1699H35.5472V16.865ZM30.8892 16.865H34.4392V18.1699H30.8892V16.865ZM35.5472 19.0581H39.1085V20.3631H35.5472V19.0581Z" fill="white"/>
</g>
<g clip-path="url(#clip2_478_537)">
<path fill-rule="evenodd" clip-rule="evenodd" d="M53.4819 0.0299683H62.4228L70.0005 7.69083V22.5913C70.0005 24.4579 68.4435 25.968 66.5257 25.968H53.4819C51.5575 25.968 50.0005 24.4579 50.0005 22.5913V3.40671C50.0005 1.5401 51.5575 0.0299683 53.4819 0.0299683V0.0299683Z" fill="#E5252A"/>
<path fill-rule="evenodd" clip-rule="evenodd" d="M62.4155 0.0299683V7.6325H69.9999L62.4155 0.0299683Z" fill="white" fill-opacity="0.301961"/>
<path d="M53.8696 19.3827V14.6449H55.9478C56.4623 14.6449 56.87 14.781 57.1773 15.0597C57.4847 15.3319 57.6384 15.7013 57.6384 16.1615C57.6384 16.6217 57.4847 16.9911 57.1773 17.2633C56.87 17.542 56.4623 17.6781 55.9478 17.6781H55.1192V19.3827H53.8696ZM55.1192 16.6476H55.8075C55.9946 16.6476 56.1416 16.6087 56.2418 16.518C56.3421 16.4337 56.3955 16.3171 56.3955 16.1615C56.3955 16.006 56.3421 15.8893 56.2418 15.805C56.1416 15.7143 55.9946 15.6754 55.8075 15.6754H55.1192V16.6476ZM58.153 19.3827V14.6449H59.8837C60.2245 14.6449 60.5452 14.6903 60.8459 14.7875C61.1466 14.8847 61.4206 15.0208 61.6611 15.2088C61.9017 15.3902 62.0955 15.6365 62.2358 15.9476C62.3695 16.2587 62.443 16.6152 62.443 17.017C62.443 17.4124 62.3695 17.7689 62.2358 18.08C62.0955 18.3911 61.9017 18.6374 61.6611 18.8188C61.4206 19.0068 61.1466 19.1429 60.8459 19.2401C60.5452 19.3373 60.2245 19.3827 59.8837 19.3827H58.153ZM59.3758 18.3522H59.7367C59.9304 18.3522 60.1109 18.3327 60.2779 18.2874C60.4383 18.242 60.592 18.1707 60.739 18.0735C60.8793 17.9763 60.9929 17.8402 61.0731 17.6587C61.1533 17.4772 61.1934 17.2633 61.1934 17.017C61.1934 16.7643 61.1533 16.5504 61.0731 16.3689C60.9929 16.1874 60.8793 16.0513 60.739 15.9541C60.592 15.8569 60.4383 15.7856 60.2779 15.7402C60.1109 15.6949 59.9304 15.6754 59.7367 15.6754H59.3758V18.3522ZM63.0711 19.3827V14.6449H66.5459V15.6754H64.3207V16.4337H66.0982V17.4578H64.3207V19.3827H63.0711Z" fill="white"/>
</g>
</g>
<defs>
<clipPath id="clip0_478_537">
<rect width="20" height="26" fill="white"/>
</clipPath>
<clipPath id="clip1_478_537">
<rect width="20" height="26" fill="white" transform="translate(25)"/>
</clipPath>
<clipPath id="clip2_478_537">
<rect width="20" height="26" fill="white" transform="translate(50)"/>
</clipPath>
</defs>
</svg>
