<svg width="32" height="32" viewBox="0 0 32 32" fill="none" xmlns="http://www.w3.org/2000/svg">
<rect width="32" height="32" rx="16" fill="#F1F1F1"/>
<path fill-rule="evenodd" clip-rule="evenodd" d="M14.8029 7.14176C11.967 8.07566 11.0847 11.7156 13.1832 13.8238C14.0067 14.6511 14.7511 14.949 16.0043 14.9526C16.8836 14.9553 17.1753 14.9024 17.6898 14.6479C18.4847 14.2547 19.2416 13.4927 19.6319 12.6924C20.0737 11.7866 20.0768 10.1957 19.6385 9.30054C19.2442 8.49502 18.483 7.73502 17.6931 7.35829C16.9309 6.99464 15.5614 6.89203 14.8029 7.14176ZM11.1883 16.1997C10.7272 16.4086 10.3104 16.8519 10.1334 17.3216C10.0544 17.531 9.99988 18.7432 9.99988 20.2894C9.99988 22.8008 10.011 22.92 10.2848 23.3306C10.643 23.8675 11.5717 24.3756 12.8356 24.7263C13.6696 24.9577 14.1404 24.9976 16.0043 24.9952C17.8534 24.9927 18.3476 24.95 19.1854 24.7202C20.4192 24.3818 21.358 23.8617 21.7338 23.3082C22.016 22.8923 22.0209 22.83 21.984 20.0919C21.9426 17.0269 21.9318 16.9825 21.0851 16.3467C20.7528 16.0973 20.5671 16.0863 16.1517 16.0587C12.5164 16.0358 11.4856 16.0651 11.1883 16.1997Z" fill="#0C0C0C"/>
</svg>
