<svg width="22" height="20" viewBox="0 0 22 20" fill="none" xmlns="http://www.w3.org/2000/svg">
<path d="M20.6397 10.9446C21.0148 10.9446 21.3188 10.6406 21.3188 10.2655C21.3188 9.89042 21.0148 9.58637 20.6397 9.58637V10.9446ZM8.90937 9.58637C8.5343 9.58637 8.23025 9.89042 8.23025 10.2655C8.23025 10.6406 8.5343 10.9446 8.90937 10.9446V9.58637ZM18.2677 6.94351C18.002 6.67884 17.572 6.67973 17.3073 6.94548C17.0426 7.21124 17.0435 7.64123 17.3093 7.9059L18.2677 6.94351ZM20.641 10.2655L21.1202 10.7467C21.2481 10.6192 21.3201 10.4461 21.3201 10.2655C21.3201 10.0849 21.2481 9.91172 21.1202 9.78428L20.641 10.2655ZM17.3093 12.6251C17.0435 12.8897 17.0426 13.3197 17.3073 13.5855C17.572 13.8512 18.002 13.8521 18.2677 13.5874L17.3093 12.6251ZM14.6724 5.95279C14.7068 6.32627 15.0375 6.60113 15.411 6.56671C15.7845 6.53228 16.0593 6.2016 16.0249 5.82812L14.6724 5.95279ZM16.0249 14.4673C16.0593 14.0938 15.7845 13.7632 15.411 13.7287C15.0375 13.6943 14.7068 13.9692 14.6724 14.3426L16.0249 14.4673ZM20.6397 9.58637H8.90937V10.9446H20.6397V9.58637ZM17.3093 7.9059L20.1617 10.7467L21.1202 9.78428L18.2677 6.94351L17.3093 7.9059ZM20.1617 9.78428L17.3093 12.6251L18.2677 13.5874L21.1202 10.7467L20.1617 9.78428ZM16.0249 5.82812C15.8594 4.03204 15.4262 2.5908 14.1699 1.6599C12.9625 0.765208 11.1368 0.457235 8.52925 0.457235V1.81547C11.1143 1.81547 12.5375 2.14073 13.3613 2.75118C14.1362 3.32541 14.5165 4.26122 14.6724 5.95279L16.0249 5.82812ZM8.52925 0.457235C5.07096 0.457235 2.97271 1.00086 1.89751 2.75122C1.38363 3.58778 1.15477 4.62691 1.04334 5.8245C0.931689 7.02455 0.932333 8.46852 0.932333 10.1477H2.29057C2.29057 8.44643 2.29121 7.07375 2.39574 5.95033C2.50049 4.82444 2.70399 4.03329 3.05484 3.46213C3.70909 2.39705 5.06974 1.81547 8.52925 1.81547V0.457235ZM0.932333 10.1477C0.932333 11.8269 0.931689 13.2709 1.04334 14.4709C1.15477 15.6685 1.38363 16.7076 1.89751 17.5442C2.97271 19.2946 5.07096 19.8382 8.52925 19.8382V18.48C5.06974 18.48 3.70909 17.8984 3.05484 16.8333C2.70399 16.2621 2.50049 15.471 2.39574 14.3451C2.29121 13.2217 2.29057 11.849 2.29057 10.1477H0.932333ZM8.52925 19.8382C11.1368 19.8382 12.9625 19.5302 14.1699 18.6355C15.4262 17.7046 15.8594 16.2634 16.0249 14.4673L14.6724 14.3426C14.5165 16.0342 14.1362 16.97 13.3613 17.5443C12.5375 18.1547 11.1143 18.48 8.52925 18.48V19.8382Z" fill="#788591"/>
</svg>
