<svg width="24" height="24" viewBox="0 0 24 24" fill="none" xmlns="http://www.w3.org/2000/svg">
<mask id="mask0_3251_12076" style="mask-type:alpha" maskUnits="userSpaceOnUse" x="0" y="0" width="24" height="24">
<rect width="24" height="24" fill="#D9D9D9"/>
</mask>
<g mask="url(#mask0_3251_12076)">
<path d="M5 4V10.025V10V20V4ZM7 14H10.5C10.65 13.6167 10.8333 13.2583 11.05 12.925C11.2667 12.5917 11.5167 12.2833 11.8 12H7V14ZM7 18H10.175C10.0917 17.6667 10.0377 17.3333 10.013 17C9.98767 16.6667 9.99167 16.3333 10.025 16H7V18ZM5 22C4.45 22 3.979 21.8043 3.587 21.413C3.19567 21.021 3 20.55 3 20V4C3 3.45 3.19567 2.979 3.587 2.587C3.979 2.19567 4.45 2 5 2H13L19 8V10.5C18.6833 10.3667 18.3583 10.2627 18.025 10.188C17.6917 10.1127 17.35 10.0583 17 10.025V9H12V4H5V20H11.025C11.2917 20.4 11.5917 20.771 11.925 21.113C12.2583 21.4543 12.625 21.75 13.025 22H5ZM16.5 19C17.2 19 17.7917 18.7583 18.275 18.275C18.7583 17.7917 19 17.2 19 16.5C19 15.8 18.7583 15.2083 18.275 14.725C17.7917 14.2417 17.2 14 16.5 14C15.8 14 15.2083 14.2417 14.725 14.725C14.2417 15.2083 14 15.8 14 16.5C14 17.2 14.2417 17.7917 14.725 18.275C15.2083 18.7583 15.8 19 16.5 19ZM21.6 23L18.9 20.3C18.55 20.5333 18.171 20.7083 17.763 20.825C17.3543 20.9417 16.9333 21 16.5 21C15.25 21 14.1873 20.5627 13.312 19.688C12.4373 18.8127 12 17.75 12 16.5C12 15.25 12.4373 14.1873 13.312 13.312C14.1873 12.4373 15.25 12 16.5 12C17.75 12 18.8127 12.4373 19.688 13.312C20.5627 14.1873 21 15.25 21 16.5C21 16.9333 20.9417 17.354 20.825 17.762C20.7083 18.1707 20.5333 18.55 20.3 18.9L23 21.6L21.6 23Z" fill="#0E40CF"/>
</g>
</svg>
