<svg width="12" height="13" fill="none" xmlns="http://www.w3.org/2000/svg"><path fill-rule="evenodd" clip-rule="evenodd" d="M3.64.913A1.41 1.41 0 0 1 4.636.5h2.728a1.41 1.41 0 0 1 1.409 1.41v.863H11a.5.5 0 0 1 0 1h-.41v7.909a.955.955 0 0 1-.954.954H2.364a.955.955 0 0 1-.955-.954v-7.91H1a.5.5 0 1 1 0-1h2.227V1.91c0-.374.149-.732.413-.996Zm-1.23 2.86v7.863h7.18V3.773H2.41Zm5.363-1H4.227v-.864a.41.41 0 0 1 .41-.409h2.727a.41.41 0 0 1 .409.41v.863Zm-3.137 2.5a.5.5 0 0 1 .5.5v3.636a.5.5 0 1 1-1 0V5.773a.5.5 0 0 1 .5-.5Zm2.728 0a.5.5 0 0 1 .5.5v3.636a.5.5 0 0 1-1 0V5.773a.5.5 0 0 1 .5-.5Z" fill="#CDCDCD"/></svg>