<svg width="22" height="20" fill="none" xmlns="http://www.w3.org/2000/svg"><path d="M20.64 10.945a.679.679 0 1 0 0-1.359v1.359ZM8.91 9.586a.68.68 0 1 0 0 1.359V9.586Zm9.358-2.642a.68.68 0 1 0-.959.962l.959-.962Zm2.373 3.321.48.482a.68.68 0 0 0 0-.963l-.48.481Zm-3.332 2.36a.679.679 0 1 0 .959.962l-.959-.962Zm-2.637-6.672a.68.68 0 1 0 1.353-.125l-1.353.125Zm1.353 8.514a.68.68 0 0 0-1.353-.124l1.353.124Zm4.615-4.88H8.91v1.358h11.73V9.586Zm-3.33-1.681 2.852 2.84.958-.962-2.852-2.84-.959.962Zm2.852 1.878-2.853 2.841.959.962 2.852-2.84-.958-.963Zm-4.137-3.956c-.166-1.796-.599-3.237-1.855-4.168C12.963.765 11.137.457 8.53.457v1.358c2.584 0 4.008.326 4.831.936.775.574 1.155 1.51 1.311 3.202l1.353-.125ZM8.529.458C5.071.457 2.973 1 1.898 2.75c-.514.837-.743 1.876-.855 3.073-.111 1.2-.11 2.645-.11 4.324H2.29c0-1.702 0-3.074.105-4.198.104-1.126.308-1.917.659-2.488.654-1.065 2.015-1.647 5.474-1.647V.457Zm-7.597 9.69c0 1.679 0 3.123.111 4.323.112 1.197.34 2.237.855 3.073 1.075 1.75 3.173 2.294 6.631 2.294V18.48c-3.46 0-4.82-.582-5.474-1.647-.351-.57-.555-1.362-.66-2.488-.104-1.123-.104-2.496-.104-4.197H.932Zm7.597 9.69c2.608 0 4.434-.308 5.64-1.203 1.257-.93 1.69-2.372 1.856-4.168l-1.353-.124c-.155 1.691-.536 2.627-1.31 3.201-.825.61-2.248.936-4.833.936v1.358Z" fill="#788591"/></svg>