<svg width="14" height="21" fill="none" xmlns="http://www.w3.org/2000/svg"><path fill-rule="evenodd" clip-rule="evenodd" d="M3.714 7.955C1.266 5.495 2.294 1.25 5.604.16c.884-.291 2.482-.172 3.371.253.922.44 1.81 1.326 2.27 2.265.51 1.045.507 2.9-.008 3.957-.456.934-1.339 1.823-2.266 2.282-.6.297-.94.358-1.966.355-1.462-.004-2.33-.352-3.291-1.317Zm-3.558 4.08a2.476 2.476 0 0 1 1.23-1.308c.347-.157 1.55-.191 5.79-.165l.84.006L.09 18.495C.005 18.082 0 17.344 0 15.498c0-1.804.064-3.218.156-3.462Zm1.298 7.923c.503.271 1.132.516 1.854.716.973.27 1.522.317 3.697.314 2.157-.003 2.734-.053 3.711-.32 1.44-.396 2.535-1.002 2.973-1.648.33-.485.335-.558.292-3.752-.049-3.576-.061-3.628-1.049-4.37-.261-.196-.445-.265-2.118-.3l-9.36 9.36Z" fill="#788591"/></svg>