<svg width="24" height="24" fill="none" xmlns="http://www.w3.org/2000/svg"><mask id="a" style="mask-type:alpha" maskUnits="userSpaceOnUse" x="0" y="0" width="24" height="24"><path fill="#D9D9D9" d="M0 0h24v24H0z"/></mask><g mask="url(#a)"><path d="M5 4v6.025V10v10V4Zm2 10h3.5c.15-.383.333-.742.55-1.075.217-.333.467-.642.75-.925H7v2Zm0 4h3.175a5.924 5.924 0 0 1-.15-2H7v2Zm-2 4c-.55 0-1.021-.196-1.413-.587A1.928 1.928 0 0 1 3 20V4c0-.55.196-1.021.587-1.413A1.928 1.928 0 0 1 5 2h8l6 6v2.5a5.75 5.75 0 0 0-.975-.312A8.15 8.15 0 0 0 17 10.025V9h-5V4H5v16h6.025c.267.4.567.771.9 1.113.333.341.7.637 1.1.887H5Zm11.5-3c.7 0 1.292-.242 1.775-.725.483-.483.725-1.075.725-1.775s-.242-1.292-.725-1.775C17.792 14.242 17.2 14 16.5 14s-1.292.242-1.775.725C14.242 15.208 14 15.8 14 16.5s.242 1.292.725 1.775c.483.483 1.075.725 1.775.725Zm5.1 4-2.7-2.7a4.04 4.04 0 0 1-1.137.525c-.409.117-.83.175-1.263.175-1.25 0-2.313-.437-3.188-1.312S12 17.75 12 16.5c0-1.25.437-2.313 1.312-3.188S15.25 12 16.5 12c1.25 0 2.313.437 3.188 1.312S21 15.25 21 16.5c0 .433-.058.854-.175 1.262A4.037 4.037 0 0 1 20.3 18.9l2.7 2.7-1.4 1.4Z" fill="#0E40CF"/></g></svg>